<?xml version="1.0" encoding="UTF-8"?>
<!DOCTYPE svg PUBLIC "-//W3C//DTD SVG 1.1//EN" "http://www.w3.org/Graphics/SVG/1.1/DTD/svg11.dtd">
<!-- Creator: CorelDRAW X7 -->
<svg xmlns="http://www.w3.org/2000/svg" xml:space="preserve" width="2.40958in" height="0.353in" version="1.1" style="shape-rendering:geometricPrecision; text-rendering:geometricPrecision; image-rendering:optimizeQuality; fill-rule:evenodd; clip-rule:evenodd"
viewBox="0 0 1441 211"
 xmlns:xlink="http://www.w3.org/1999/xlink">
 <defs>
  <style type="text/css">
   <![CDATA[
    .fil0 {fill:#4B4B4D;fill-rule:nonzero}
    .fil1 {fill:#EC5137;fill-rule:nonzero}
   ]]>
  </style>
 </defs>
 <g id="Layer_x0020_1">
  <metadata id="CorelCorpID_0Corel-Layer"/>
  <g id="_559839304">
   <path class="fil0" d="M0 207l0 -204 17 0 76 94 76 -94 18 0 0 204 -17 0 0 -180 -77 95 -77 -95 0 180 -16 0zm235 0l0 -204 18 0 0 204 -18 0zm163 -175c-8,-5 -16,-10 -24,-12 -8,-3 -15,-4 -23,-4 -12,0 -22,3 -30,10 -8,8 -12,17 -12,28 0,9 3,16 8,22 5,5 16,12 32,19 1,0 3,1 5,2 19,7 31,15 38,22 4,5 7,10 10,16 2,6 3,13 3,20 0,16 -6,29 -17,40 -11,10 -26,15 -43,15 -9,0 -18,-1 -27,-4 -8,-3 -17,-8 -26,-14l0 -20c10,8 19,14 27,17 9,4 17,6 25,6 14,0 24,-4 32,-11 8,-8 12,-18 12,-30 0,-9 -3,-17 -8,-23 -5,-6 -18,-13 -36,-20 -20,-9 -33,-17 -41,-25 -7,-8 -10,-19 -10,-31 0,-16 5,-29 16,-39 11,-10 25,-15 43,-15 8,0 16,1 23,3 8,2 16,5 23,10l0 18zm137 0c-8,-5 -16,-10 -24,-12 -8,-3 -15,-4 -23,-4 -12,0 -22,3 -30,10 -8,8 -12,17 -12,28 0,9 3,16 8,22 5,5 16,12 32,19 1,0 3,1 5,2 19,7 31,15 38,22 4,5 7,10 10,16 2,6 3,13 3,20 0,16 -6,29 -17,40 -11,10 -26,15 -43,15 -9,0 -18,-1 -27,-4 -8,-3 -17,-8 -26,-14l0 -20c10,8 19,14 27,17 9,4 17,6 25,6 14,0 24,-4 32,-11 8,-8 12,-18 12,-30 0,-9 -3,-17 -8,-23 -6,-6 -18,-13 -36,-20 -20,-9 -33,-17 -41,-25 -7,-8 -10,-19 -10,-31 0,-16 5,-29 16,-39 11,-10 25,-15 43,-15 8,0 16,1 23,3 8,2 15,5 23,10l0 18zm42 175l0 -204 17 0 0 204 -17 0zm72 -102c0,12 3,24 7,35 5,11 11,21 19,30 9,8 18,15 29,19 12,5 23,7 35,7 12,0 23,-2 34,-6 11,-5 21,-11 29,-20 9,-9 15,-19 19,-30 5,-11 7,-22 7,-35 0,-12 -2,-24 -6,-34 -5,-11 -11,-21 -20,-30 -8,-8 -18,-15 -29,-20 -11,-4 -22,-7 -34,-7 -12,0 -23,3 -34,7 -11,5 -21,12 -30,20 -8,9 -14,18 -19,29 -4,11 -7,23 -7,35zm-18 -1c0,-13 3,-26 9,-39 5,-13 13,-24 23,-34 10,-10 22,-18 35,-23 13,-5 26,-8 41,-8 14,0 28,3 41,8 13,5 25,13 35,23 10,10 18,21 23,34 5,12 8,26 8,40 0,11 -1,21 -4,31 -4,10 -8,20 -14,28 -10,15 -23,27 -39,35 -15,8 -32,12 -50,12 -15,0 -28,-3 -42,-8 -13,-5 -24,-13 -34,-23 -10,-10 -18,-22 -24,-34 -5,-13 -8,-27 -8,-42zm251 103l0 -204 17 0 149 179 0 -179 17 0 0 204 -16 0 -151 -180 0 180 -16 0z"/>
   <path class="fil1" d="M1112 207l0 -204 111 0 0 13 -94 0 0 81 91 0 0 14 -91 0 0 83 96 0 0 13 -113 0zm215 -189l-50 0 0 175 50 0c13,0 25,-1 34,-3 10,-2 18,-6 25,-11 12,-7 21,-18 27,-31 7,-13 10,-27 10,-42 0,-16 -3,-30 -10,-43 -6,-13 -15,-24 -27,-31 -7,-5 -15,-9 -25,-11 -9,-2 -21,-3 -34,-3zm4 -15c15,0 28,2 39,5 11,3 21,7 30,14 13,9 23,21 30,36 7,15 11,30 11,47 0,17 -4,33 -11,47 -7,15 -17,27 -30,37 -9,6 -19,11 -30,14 -11,3 -24,4 -39,4l-71 0 0 -204 71 0z"/>
  </g>
 </g>
</svg>
