<?xml version="1.0" encoding="UTF-8"?>
<!DOCTYPE svg PUBLIC "-//W3C//DTD SVG 1.1//EN" "http://www.w3.org/Graphics/SVG/1.1/DTD/svg11.dtd">
<!-- Creator: CorelDRAW X7 -->
<svg xmlns="http://www.w3.org/2000/svg" xml:space="preserve" width="832px" height="832px" version="1.1" style="shape-rendering:geometricPrecision; text-rendering:geometricPrecision; image-rendering:optimizeQuality; fill-rule:evenodd; clip-rule:evenodd"
viewBox="0 0 832 832"
 xmlns:xlink="http://www.w3.org/1999/xlink">
 <defs>
  <style type="text/css">
   <![CDATA[
    .str1 {stroke:#A9ABAE;stroke-width:4.99961;stroke-linecap:round;stroke-linejoin:round}
    .str2 {stroke:#96989A;stroke-width:3;stroke-linecap:round;stroke-linejoin:round}
    .str0 {stroke:#A9ABAE;stroke-width:3;stroke-linecap:round;stroke-linejoin:round;stroke-dasharray:3.000003 9.000009}
    .fil0 {fill:none}
   ]]>
  </style>
 </defs>
 <g id="Layer_x0020_1">
  <metadata id="CorelCorpID_0Corel-Layer"/>
  <rect class="fil0" width="832" height="832" rx="385" ry="416"/>
  <rect class="fil0 str0" x="5" y="5" width="821" height="821" rx="380" ry="411"/>
  <rect class="fil0 str0" x="75" y="75" width="681" height="681" rx="315" ry="341"/>
  <g id="_525560560">
   <path class="fil0 str1" d="M390 679c-133,-13 -238,-126 -238,-263 0,-128 92,-235 213,-259 9,-2 17,-3 26,-4l0 49c-117,25 -175,105 -185,187l135 0 0 50 -136 0c10,93 78,179 185,189l0 51z"/>
   <path class="fil0 str1" d="M441 679c134,-13 239,-126 239,-263 0,-137 -105,-250 -239,-263l0 526z"/>
   <path class="fil0 str1" d="M490 618c79,-7 141,-122 141,-202 0,-80 -62,-195 -141,-203l0 405z"/>
  </g>
  <path class="fil0 str2" d="M425 22c11,-8 27,-20 41,3l11 37c-6,7 -22,19 -38,-4l-14 -36zm-41 1c10,-9 24,-23 41,-1l14 36c-5,7 -19,21 -37,-1l-18 -34zm-41 5c9,-9 22,-24 41,-5l18 34c-5,8 -18,23 -38,4l-21 -33zm-40 10c8,-10 19,-27 40,-10l21 33c-3,8 -15,24 -37,7l-24 -30zm-39 14c7,-11 16,-29 39,-14l24 30c-2,9 -12,26 -35,11l-28 -27zm-37 18c5,-12 13,-30 37,-18l28 27c-2,9 -10,27 -35,15l-30 -24zm-35 22c4,-13 10,-32 35,-22l30 24c-1,9 -6,28 -33,19l-32 -21zm-33 25c3,-13 7,-33 33,-25l32 21c1,9 -3,28 -30,21l-35 -17zm-30 28c1,-13 3,-33 30,-28l35 17c1,9 -1,29 -29,25l-36 -14zm-27 32c0,-13 0,-33 27,-32l36 14c3,9 3,29 -25,28l-38 -10zm-23 34c-1,-13 -4,-33 23,-34l38 10c3,8 5,28 -23,30l-38 -6zm-20 36c-2,-13 -7,-32 20,-36l38 6c4,8 9,27 -19,32l-39 -2zm-15 38c-4,-12 -11,-31 15,-38l39 2c5,8 11,27 -15,34l-39 2zm-12 40c-5,-12 -14,-30 12,-40l39 -2c5,7 13,25 -13,36l-38 6zm-7 41c-7,-12 -17,-29 7,-41l38 -6c7,6 17,23 -8,36l-37 11zm-3 41c-8,-11 -20,-27 3,-41l37 -11c7,6 19,22 -4,38l-36 14zm1 41c-9,-10 -23,-24 -1,-41l36 -14c7,5 21,19 -1,37l-34 18zm5 41c-9,-9 -24,-22 -5,-41l34 -18c8,5 23,18 4,38l-33 21zm10 40c-10,-8 -27,-19 -10,-40l33 -21c8,3 24,15 7,37l-30 24zm14 39c-11,-7 -29,-16 -14,-39l30 -24c9,2 26,12 11,35l-27 28zm18 37c-12,-5 -30,-13 -18,-37l27 -28c9,2 27,10 15,35l-24 30zm22 35c-13,-4 -32,-10 -22,-35l24 -30c9,1 28,6 19,33l-21 32zm25 33c-13,-3 -33,-7 -25,-33l21 -32c9,-1 28,3 21,30l-17 35zm28 30c-13,-1 -33,-3 -28,-30l17 -35c9,-1 29,1 25,29l-14 36zm32 27c-13,0 -33,0 -32,-27l14 -36c9,-3 29,-3 28,25l-10 38zm34 23c-13,1 -33,4 -34,-23l10 -38c8,-3 28,-5 30,23l-6 38zm36 20c-13,2 -32,7 -36,-20l6 -38c8,-4 27,-9 32,19l-2 39zm38 15c-12,4 -31,11 -38,-15l2 -39c8,-5 27,-11 34,15l2 39zm40 12c-12,5 -30,14 -40,-12l-2 -39c7,-5 25,-13 36,13l6 38zm41 7c-12,7 -29,17 -41,-7l-6 -38c6,-7 23,-17 36,8l11 37zm41 3c-11,8 -27,20 -41,-3l-11 -37c6,-7 22,-19 38,4l14 36zm41 -1c-10,9 -24,23 -41,1l-14 -36c5,-7 19,-21 37,1l18 34zm41 -5c-9,9 -22,24 -41,5l-18 -34c5,-8 18,-23 38,-4l21 33zm40 -10c-8,10 -19,27 -40,10l-21 -33c3,-8 15,-24 37,-7l24 30zm39 -14c-7,11 -16,29 -39,14l-24 -30c2,-9 12,-26 35,-11l28 27zm37 -18c-5,12 -13,30 -37,18l-28 -27c2,-9 10,-27 35,-15l30 24zm35 -22c-4,13 -10,32 -35,22l-30 -24c1,-9 6,-28 33,-19l32 21zm33 -25c-3,13 -7,33 -33,25l-32 -21c-1,-9 3,-28 30,-21l35 17zm30 -28c-1,13 -3,33 -30,28l-35 -17c-1,-9 1,-29 29,-25l36 14zm27 -32c0,13 0,33 -27,32l-36 -14c-3,-9 -3,-29 25,-28l38 10zm23 -34c1,13 4,33 -23,34l-38 -10c-3,-8 -5,-28 23,-30l38 6zm20 -36c2,13 7,32 -20,36l-38 -6c-4,-8 -9,-27 19,-32l39 2zm15 -38c4,12 11,31 -15,38l-39 -2c-5,-8 -11,-27 15,-34l39 -2zm12 -40c5,12 14,30 -12,40l-39 2c-5,-7 -13,-25 13,-36l38 -6zm7 -41c7,12 17,29 -7,41l-38 6c-7,-6 -17,-23 8,-36l37 -11zm3 -41c8,11 20,27 -3,41l-37 11c-7,-6 -19,-22 4,-38l36 -14zm-1 -41c9,10 23,24 1,41l-36 14c-7,-5 -21,-19 1,-37l34 -18zm-5 -41c9,9 24,22 5,41l-34 18c-8,-5 -23,-18 -4,-38l33 -21zm-10 -40c10,8 27,19 10,40l-33 21c-8,-3 -24,-15 -7,-37l30 -24zm-14 -39c11,7 29,16 14,39l-30 24c-9,-2 -26,-12 -11,-35l27 -28zm-18 -37c12,5 30,13 18,37l-27 28c-9,-2 -27,-10 -15,-35l24 -30zm-22 -35c13,4 32,10 22,35l-24 30c-9,-1 -28,-6 -19,-33l21 -32zm-25 -33c13,3 33,7 25,33l-21 32c-9,1 -28,-3 -21,-30l17 -35zm-28 -30c13,1 33,3 28,30l-17 35c-9,1 -29,-1 -25,-29l14 -36zm-32 -27c13,0 33,0 32,27l-14 36c-9,3 -29,3 -28,-25l10 -38zm-34 -23c13,-1 33,-4 34,23l-10 38c-8,3 -28,5 -30,-23l6 -38zm-36 -20c13,-2 32,-7 36,20l-6 38c-8,4 -27,9 -32,-19l2 -39zm-38 -15c12,-4 31,-11 38,15l-2 39c-8,5 -27,11 -34,-15l-2 -39zm-40 -12c12,-5 30,-14 40,12l2 39c-7,5 -25,13 -36,-13l-6 -38zm-41 -7c12,-7 29,-17 41,7l6 38c-6,7 -23,17 -36,-8l-11 -37z"/>
 </g>
</svg>
