<?xml version="1.0" encoding="UTF-8"?>
<!DOCTYPE svg PUBLIC "-//W3C//DTD SVG 1.1//EN" "http://www.w3.org/Graphics/SVG/1.1/DTD/svg11.dtd">
<!-- Creator: CorelDRAW X7 -->
<svg xmlns="http://www.w3.org/2000/svg" xml:space="preserve" width="2.77333in" height="2.77333in" version="1.1" style="shape-rendering:geometricPrecision; text-rendering:geometricPrecision; image-rendering:optimizeQuality; fill-rule:evenodd; clip-rule:evenodd"
viewBox="0 0 2773 2773"
 xmlns:xlink="http://www.w3.org/1999/xlink">
 <defs>
  <style type="text/css">
   <![CDATA[
    .str1 {stroke:#A9ABAE;stroke-width:16.6654;stroke-linecap:round;stroke-linejoin:round}
    .str2 {stroke:#96989A;stroke-width:10;stroke-linecap:round;stroke-linejoin:round}
    .str0 {stroke:#A9ABAE;stroke-width:10;stroke-linecap:round;stroke-linejoin:round;stroke-dasharray:10.000000 30.000000}
    .fil0 {fill:none}
   ]]>
  </style>
 </defs>
 <g id="Layer_x0020_1">
  <metadata id="CorelCorpID_0Corel-Layer"/>
  <rect class="fil0" width="2773" height="2773" rx="1283" ry="1387"/>
  <rect class="fil0 str0" x="22" y="22" width="2730" height="2730" rx="1263" ry="1365"/>
  <rect class="fil0 str0" x="244" y="244" width="2286" height="2286" rx="1058" ry="1143"/>
  <path class="fil0 str1" d="M1301 2263c-444,-44 -794,-421 -794,-876 0,-426 307,-784 711,-865 28,-5 57,-9 86,-12l0 162c-391,85 -583,350 -618,625l450 0 0 167 -452 -1c33,311 259,598 617,629l0 171z"/>
  <path class="fil0 str1" d="M1470 2264c445,-44 796,-422 796,-877 0,-456 -351,-834 -796,-877l0 1754z"/>
  <path class="fil0 str1" d="M1634 2061c262,-25 468,-406 468,-674 0,-268 -206,-652 -468,-677l0 1351z"/>
  <path class="fil0 str2" d="M1417 72c35,-25 89,-65 137,11l34 124c-19,23 -72,63 -124,-14l-47 -121zm-138 4c33,-29 82,-74 138,-4l47 121c-17,25 -65,70 -125,-2l-60 -115zm-136 19c29,-33 73,-83 136,-19l60 115c-14,27 -58,77 -125,12l-71 -108zm-134 32c26,-35 65,-90 134,-32l71 108c-11,28 -49,82 -123,24l-82 -100zm-129 47c22,-38 54,-97 129,-47l82 100c-8,29 -40,87 -119,38l-92 -91zm-124 59c18,-40 44,-101 124,-59l92 91c-6,29 -31,90 -115,49l-101 -81zm-117 72c13,-41 33,-105 117,-72l101 81c-3,30 -22,93 -110,61l-108 -70zm-109 85c9,-43 22,-109 109,-85l108 70c1,30 -11,95 -102,73l-115 -58zm-100 95c5,-44 11,-110 100,-95l115 58c4,30 -1,95 -94,82l-121 -45zm-89 105c0,-44 -1,-111 89,-105l121 45c7,30 8,96 -85,92l-125 -32zm-78 113c-4,-43 -12,-110 78,-113l125 32c10,29 18,94 -75,101l-128 -20zm-65 121c-9,-42 -24,-108 65,-121l128 20c13,27 28,91 -64,107l-129 -6zm-52 128c-13,-42 -35,-105 52,-128l129 6c16,26 38,88 -52,114l-129 8zm-39 132c-17,-40 -46,-101 39,-132l129 -8c19,24 46,84 -40,119l-128 21zm-24 135c-22,-38 -56,-95 24,-135l128 -21c21,22 55,78 -28,122l-124 34zm-11 137c-25,-35 -65,-89 11,-137l124 -34c23,19 63,72 -14,124l-121 47zm4 138c-29,-33 -74,-82 -4,-138l121 -47c25,17 70,66 -2,126l-115 59zm19 136c-33,-29 -83,-73 -19,-136l115 -59c27,14 77,57 12,124l-108 71zm32 134c-35,-26 -90,-64 -32,-134l108 -71c28,12 82,50 24,123l-100 82zm47 130c-38,-22 -97,-55 -47,-130l100 -82c29,8 87,41 38,120l-91 92zm59 124c-40,-18 -101,-45 -59,-124l91 -92c29,5 90,31 49,115l-81 101zm72 117c-41,-14 -105,-34 -72,-117l81 -101c30,2 93,21 61,109l-70 109zm85 109c-43,-10 -109,-22 -85,-109l70 -109c30,-1 95,12 73,102l-58 116zm95 99c-44,-5 -110,-10 -95,-99l58 -116c30,-4 95,2 82,94l-45 121zm105 89c-44,0 -111,1 -105,-89l45 -121c30,-7 96,-8 92,85l-32 125zm113 78c-43,4 -110,12 -113,-78l32 -125c29,-10 94,-18 101,75l-20 128zm121 65c-42,9 -108,24 -121,-65l20 -128c27,-13 91,-28 107,64l-6 129zm128 52c-42,14 -105,35 -128,-52l6 -129c26,-16 88,-37 114,52l8 129zm132 39c-40,18 -101,46 -132,-39l-8 -129c24,-18 84,-46 119,40l21 128zm135 25c-38,21 -95,56 -135,-25l-21 -128c22,-20 78,-54 122,28l34 125zm137 10c-35,26 -89,66 -137,-10l-34 -125c19,-23 72,-63 124,15l47 120zm138 -4c-33,29 -82,75 -138,4l-47 -120c17,-25 66,-70 126,1l59 115zm136 -18c-29,32 -73,82 -136,18l-59 -115c14,-26 57,-76 124,-11l71 108zm134 -33c-26,35 -64,90 -134,33l-71 -108c12,-28 50,-82 123,-25l82 100zm130 -46c-22,37 -55,96 -130,46l-82 -100c8,-29 41,-87 120,-37l92 91zm124 -60c-18,40 -45,102 -124,60l-92 -91c5,-30 31,-91 115,-50l101 81zm117 -72c-14,41 -34,105 -117,72l-101 -81c2,-30 21,-93 109,-61l109 70zm109 -84c-10,42 -22,108 -109,84l-109 -70c-1,-30 12,-95 102,-72l116 58zm99 -95c-5,43 -10,110 -99,95l-116 -58c-4,-30 2,-96 94,-83l121 46zm89 -105c0,43 1,110 -89,105l-121 -46c-7,-29 -8,-95 85,-92l125 33zm78 -114c4,44 12,110 -78,114l-125 -33c-10,-28 -18,-94 75,-100l128 19zm65 -121c9,43 24,108 -65,121l-128 -19c-13,-28 -28,-92 64,-108l129 6zm52 -127c14,41 35,105 -52,127l-129 -6c-16,-26 -37,-88 52,-114l129 -7zm39 -132c18,40 46,100 -39,132l-129 7c-18,-24 -46,-84 40,-118l128 -21zm25 -136c21,38 56,96 -25,136l-128 21c-20,-22 -54,-79 28,-123l125 -34zm10 -137c26,35 66,89 -10,137l-125 34c-23,-19 -63,-72 15,-124l120 -47zm-4 -138c29,33 75,82 4,138l-120 47c-25,-17 -70,-65 1,-125l115 -60zm-18 -136c32,29 82,73 18,136l-115 60c-26,-14 -76,-58 -11,-125l108 -71zm-33 -134c35,26 90,65 33,134l-108 71c-28,-11 -82,-49 -25,-123l100 -82zm-46 -129c37,22 96,54 46,129l-100 82c-29,-8 -87,-40 -37,-119l91 -92zm-60 -124c40,18 102,44 60,124l-91 92c-30,-6 -91,-31 -50,-115l81 -101zm-72 -117c41,13 105,33 72,117l-81 101c-30,-3 -93,-22 -61,-109l70 -109zm-84 -109c42,9 108,22 84,109l-70 109c-30,0 -95,-12 -72,-103l58 -115zm-95 -100c43,5 110,11 95,100l-58 115c-30,4 -96,-1 -83,-94l46 -121zm-105 -89c43,0 110,-1 105,89l-46 121c-29,7 -95,8 -92,-85l33 -125zm-114 -78c44,-4 110,-12 114,78l-33 125c-28,10 -94,18 -100,-75l19 -128zm-121 -65c43,-9 108,-24 121,65l-19 128c-28,13 -92,28 -108,-64l6 -129zm-127 -52c41,-13 105,-35 127,52l-6 129c-26,16 -88,38 -114,-52l-7 -129zm-132 -39c40,-17 100,-46 132,39l7 129c-24,19 -84,46 -118,-40l-21 -128zm-136 -24c38,-22 96,-56 136,24l21 128c-22,21 -79,55 -123,-28l-34 -124z"/>
 </g>
</svg>
