<?xml version="1.0" encoding="UTF-8"?>
<!DOCTYPE svg PUBLIC "-//W3C//DTD SVG 1.1//EN" "http://www.w3.org/Graphics/SVG/1.1/DTD/svg11.dtd">
<!-- Creator: CorelDRAW X7 -->
<svg xmlns="http://www.w3.org/2000/svg" xml:space="preserve" width="723px" height="106px" version="1.1" style="shape-rendering:geometricPrecision; text-rendering:geometricPrecision; image-rendering:optimizeQuality; fill-rule:evenodd; clip-rule:evenodd"
viewBox="0 0 842 123"
 xmlns:xlink="http://www.w3.org/1999/xlink">
 <defs>
  <style type="text/css">
   <![CDATA[
    .fil0 {fill:#4B4B4D;fill-rule:nonzero}
    .fil1 {fill:#EC5137;fill-rule:nonzero}
   ]]>
  </style>
 </defs>
 <g id="Layer_x0020_1">
  <metadata id="CorelCorpID_0Corel-Layer"/>
  <g id="_318174672">
   <path class="fil0" d="M0 121l0 -119 10 0 45 55 44 -55 10 0 0 119 -10 0 0 -105 -44 55 -45 -55 0 105 -10 0zm138 0l0 -119 10 0 0 119 -10 0zm95 -102c-5,-3 -10,-6 -14,-8 -5,-1 -9,-2 -14,-2 -7,0 -13,2 -17,6 -5,5 -7,10 -7,16 0,6 1,10 4,13 3,4 10,7 19,11 1,1 2,1 3,1 11,5 18,9 22,13 3,3 5,6 6,10 1,4 2,7 2,11 0,10 -3,18 -10,24 -7,6 -15,9 -25,9 -6,0 -11,-1 -16,-3 -5,-1 -10,-4 -15,-8l0 -11c5,4 11,7 16,10 5,2 10,3 14,3 8,0 14,-2 19,-7 4,-4 7,-10 7,-17 0,-5 -2,-10 -5,-13 -3,-4 -10,-8 -21,-12 -12,-5 -19,-10 -24,-15 -4,-4 -6,-11 -6,-18 0,-9 3,-17 10,-23 6,-6 14,-9 25,-9 4,0 9,1 13,2 5,2 9,4 14,6l0 11zm80 0c-5,-3 -10,-6 -14,-8 -5,-1 -9,-2 -14,-2 -7,0 -13,2 -17,6 -5,5 -7,10 -7,16 0,6 1,10 4,13 3,4 10,7 19,11 1,1 2,1 3,1 11,5 18,9 22,13 3,3 5,6 6,10 1,4 2,7 2,11 0,10 -3,18 -10,24 -7,6 -15,9 -25,9 -6,0 -11,-1 -16,-3 -5,-1 -10,-4 -15,-8l0 -11c5,4 11,7 16,10 5,2 10,3 14,3 8,0 14,-2 19,-7 4,-4 7,-10 7,-17 0,-5 -2,-10 -5,-13 -3,-4 -10,-8 -21,-12 -11,-5 -19,-10 -24,-15 -4,-4 -6,-11 -6,-18 0,-9 3,-17 10,-23 6,-6 15,-9 25,-9 4,0 9,1 13,2 5,2 9,4 14,6l0 11zm24 102l0 -119 10 0 0 119 -10 0zm43 -59c0,7 1,13 4,20 2,6 6,12 11,17 5,5 10,9 17,12 6,2 13,4 20,4 7,0 14,-1 20,-4 6,-3 12,-7 17,-12 5,-5 9,-10 11,-17 3,-6 4,-13 4,-20 0,-8 -1,-14 -4,-21 -2,-6 -6,-12 -11,-17 -5,-5 -11,-9 -17,-12 -7,-2 -13,-4 -20,-4 -7,0 -14,2 -20,4 -6,3 -12,7 -17,12 -5,5 -9,11 -11,17 -3,7 -4,13 -4,21zm-11 -1c0,-8 2,-16 5,-23 3,-8 8,-14 14,-20 6,-6 12,-10 20,-13 8,-3 16,-5 24,-5 8,0 16,2 24,5 8,3 14,7 20,13 6,6 11,13 14,20 3,7 5,15 5,24 0,6 -1,12 -3,18 -2,6 -4,11 -8,16 -6,9 -13,16 -23,20 -9,5 -18,7 -29,7 -9,0 -17,-1 -24,-4 -8,-3 -15,-8 -20,-14 -6,-6 -11,-12 -14,-20 -3,-7 -5,-15 -5,-24zm146 60l0 -119 10 0 88 104 0 -104 9 0 0 119 -8 0 -89 -105 0 105 -10 0z"/>
   <path class="fil1" d="M650 121l0 -119 65 0 0 8 -55 0 0 47 53 0 0 8 -53 0 0 48 56 0 0 8 -66 0zm126 -111l-29 0 0 103 29 0c7,0 14,-1 20,-2 5,-1 10,-3 14,-6 7,-5 12,-11 16,-18 4,-8 6,-16 6,-25 0,-9 -2,-18 -6,-25 -4,-8 -9,-14 -16,-19 -4,-2 -9,-4 -14,-6 -6,-1 -13,-2 -20,-2zm2 -8c9,0 17,1 23,3 7,1 12,4 17,8 8,5 14,12 18,21 4,9 6,18 6,28 0,9 -2,19 -6,27 -4,9 -10,16 -18,21 -5,4 -10,7 -17,9 -6,1 -14,2 -23,2l-41 0 0 -119 41 0z"/>
  </g>
 </g>
</svg>
